<?xml version="1.0" encoding="UTF-8"?>
<svg version="1.1" xmlns="http://www.w3.org/2000/svg" width="1024" height="1024">
<path d="M0 0 C1.3699625 0.22197713 1.3699625 0.22197713 2.76760101 0.44843864 C24.76123932 4.03493917 46.6060762 8.34184586 68.44726562 12.7512207 C73.95151477 13.86242794 79.45830772 14.96041208 84.9659462 16.05468082 C89.31703576 16.92057268 93.66678126 17.79307086 98.01616669 18.66747856 C100.04542838 19.07473795 102.07505927 19.48016346 104.10511017 19.88347054 C114.8206632 22.01645552 125.45267461 24.34879644 136.03027344 27.09155273 C137.41930563 27.45094862 137.41930563 27.45094862 138.83639908 27.81760502 C163.13140753 34.25823736 181.9580888 44.21385139 199.9296875 61.8828125 C200.69063721 62.6257959 201.45158691 63.3687793 202.2355957 64.13427734 C209.91385558 71.82510667 215.70417088 80.34789083 220.7421875 89.9453125 C221.12890625 90.64720703 221.515625 91.34910156 221.9140625 92.07226562 C230.44269651 108.20190624 234.75979462 125.88734906 238.9921875 143.5078125 C239.76795305 146.69136037 240.54682158 149.87413556 241.32635498 153.0567627 C241.80457531 155.01397816 242.28010267 156.97185465 242.7522583 158.93054199 C243.18549752 160.72153167 243.62464274 162.51110484 244.07019043 164.29907227 C244.54613782 166.21755959 245.00444143 168.14046375 245.45031738 170.06616211 C245.69326538 171.05817627 245.93621338 172.05019043 246.18652344 173.07226562 C246.39952087 173.97303833 246.61251831 174.87381104 246.83197021 175.80187988 C247.55084883 178.10517003 247.55084883 178.10517003 249.47296143 179.2208252 C251.86453074 180.0851403 254.24368097 180.52207997 256.7421875 181.0078125 C259.02379126 181.57303883 261.29349314 182.17284805 263.56225586 182.78759766 C265.15636621 183.21907895 266.75487111 183.63470426 268.35766602 184.03271484 C273.75947332 185.44823297 277.57591111 187.22082654 281.10546875 191.76171875 C284.53149718 198.28950131 284.90178947 204.64225213 283.01171875 211.7578125 C280.42893802 218.84201107 276.63825488 223.64818993 269.7421875 227.0078125 C268.4221875 227.0078125 267.1021875 227.0078125 265.7421875 227.0078125 C266.20109375 228.00039063 266.66 228.99296875 267.1328125 230.015625 C276.63334605 250.89660144 281.0286466 271.80925777 277.55859375 294.69921875 C277.36401077 295.98527763 277.36401077 295.98527763 277.16549683 297.2973175 C275.45024024 308.28290798 273.2788616 319.18180356 271.09082031 330.08129883 C270.36646393 333.69892622 269.65555397 337.31903148 268.9453125 340.93945312 C261.79393522 376.99521272 261.79393522 376.99521272 252.7421875 389.0078125 C251.9996875 390.0596875 251.2571875 391.1115625 250.4921875 392.1953125 C239.59161083 403.34362955 224.95536554 410.99659202 209.20288086 411.30493164 C199.38285698 411.19695459 189.81795625 409.19417003 180.18359375 407.44140625 C178.01693214 407.0556543 175.85010265 406.67084428 173.68312073 406.28689575 C167.79203087 405.23998117 161.90360536 404.17873133 156.01560211 403.11461258 C151.00532336 402.21095935 145.99357087 401.31563367 140.98180008 400.42029858 C123.56396888 397.30831788 106.1521886 394.16325945 88.7421875 391.0078125 C88.08161504 390.88810656 87.42104258 390.76840061 86.74045277 390.64506721 C53.25991553 384.57768698 19.78805561 378.46309754 -13.68005371 372.3276062 C-34.50376268 368.51027234 -55.33006348 364.7072595 -76.15724182 360.90890503 C-78.67961732 360.44887852 -81.2019918 359.9888464 -83.72436523 359.52880859 C-84.9614816 359.30318174 -86.19859797 359.07755489 -87.47320271 358.84509087 C-101.7103692 356.24812526 -115.94641185 353.64501247 -130.18235588 351.04135513 C-142.09004829 348.86358182 -153.99833461 346.68924235 -165.90913105 344.52850437 C-172.21162439 343.38509085 -178.51336863 342.237629 -184.81441021 341.08624172 C-188.21470832 340.46512275 -191.61536253 339.84619675 -195.01724243 339.23379517 C-243.22147529 330.54163914 -243.22147529 330.54163914 -259.1953125 309.0703125 C-272.56268539 288.61071487 -268.37411178 266.86906619 -264.68725586 244.078125 C-264.07406004 240.28101849 -263.48361008 236.48090287 -262.89648438 232.6796875 C-256.97464224 194.90832779 -249.38939222 162.77141882 -220.2578125 136.0078125 C-219.5978125 135.6778125 -218.9378125 135.3478125 -218.2578125 135.0078125 C-218.2578125 134.3478125 -218.2578125 133.6878125 -218.2578125 133.0078125 C-222.94291718 131.74643816 -227.44069373 130.8568958 -232.2578125 130.2578125 C-238.28807876 129.2780841 -241.90965878 127.22922631 -246.2578125 123.0078125 C-246.81210938 122.48058594 -247.36640625 121.95335937 -247.9375 121.41015625 C-253.36523652 115.69888126 -256.41639318 108.77744196 -256.6953125 100.8828125 C-256.40660196 94.75252544 -254.89618228 90.06747737 -251.0703125 85.2578125 C-250.1421875 84.5153125 -249.2140625 83.7728125 -248.2578125 83.0078125 C-247.76152344 82.60304688 -247.26523438 82.19828125 -246.75390625 81.78125 C-236.77700271 75.21925975 -220.42220517 80.33672264 -209.5703125 82.3203125 C-208.4477002 82.52068115 -207.32508789 82.7210498 -206.16845703 82.92749023 C-197.39985896 84.63819408 -192.74625921 86.7552222 -187.2578125 94.0078125 C-186.5978125 94.3378125 -185.9378125 94.6678125 -185.2578125 95.0078125 C-185.04382813 94.36972656 -184.82984375 93.73164063 -184.609375 93.07421875 C-182.70563382 88.75503717 -180.17784703 84.91220426 -177.6328125 80.9453125 C-176.82094482 79.67167847 -176.82094482 79.67167847 -175.99267578 78.37231445 C-171.83057567 71.86044196 -167.63243863 65.37955056 -163.2578125 59.0078125 C-162.89010742 58.46882324 -162.52240234 57.92983398 -162.14355469 57.37451172 C-142.2744956 28.38021976 -116.48682614 2.46052246 -80.72875977 -4.32592773 C-53.85902891 -8.96991061 -26.61555885 -4.31903865 0 0 Z " fill="#000000" transform="translate(348.2578125,393.9921875)"/>
<path d="M0 0 C0.84969864 -0.00525696 1.69939728 -0.01051392 2.57484436 -0.01593018 C5.36510965 -0.02906328 8.15479794 -0.02041672 10.94506836 -0.01025391 C12.89367278 -0.01227638 14.84227646 -0.01518926 16.7908783 -0.01895142 C20.86684402 -0.02336555 24.94261201 -0.01697234 29.01855469 -0.00292969 C34.23619074 0.01417298 39.45336416 0.00430832 44.67098331 -0.01364708 C48.69192476 -0.0244998 52.71275693 -0.02103192 56.73370171 -0.0132637 C58.65738416 -0.01126641 60.58107663 -0.0137044 62.50474739 -0.02070236 C65.19483773 -0.02834259 67.88418369 -0.01667724 70.57421875 0 C71.36451477 -0.00607269 72.15481079 -0.01214539 72.96905518 -0.0184021 C77.76411776 0.03651929 81.0784659 0.72136092 85.22241211 3.38818359 C88.1216023 7.73696888 88.34688346 11.57070041 88.35302263 16.70919353 C88.35670335 17.7711248 88.36038406 18.83305608 88.3641763 19.92716709 C88.36315363 21.09001723 88.36213097 22.25286737 88.36107731 23.45095539 C88.36391953 24.69430252 88.36676174 25.93764966 88.36969009 27.21867397 C88.37659757 30.6824487 88.37903228 34.1461752 88.37961751 37.60995339 C88.38134488 41.37342552 88.3888293 45.13688682 88.39559406 48.90035266 C88.4066596 55.50036327 88.41402617 62.10037005 88.418993 68.70038795 C88.42639517 78.51441827 88.43947743 88.32843522 88.45373875 98.14245767 C88.47756534 114.65011652 88.49676276 131.15777774 88.51333809 147.66544533 C88.52976901 164.0142938 88.54824752 180.36313784 88.56947136 196.71198082 C88.57078897 197.72782931 88.57210657 198.7436778 88.57346411 199.79030958 C88.58016603 204.94911775 88.58690464 210.10792587 88.59365737 215.26673397 C88.64144298 251.82340754 88.68462152 288.38008525 88.72509766 324.93676758 C88.76443453 360.45499981 88.8058539 395.97322861 88.85009766 431.49145508 C88.85146019 432.58594043 88.85282272 433.68042578 88.85422653 434.80807736 C88.8679117 445.79917145 88.88163926 456.79026549 88.89539787 467.78135949 C88.92342576 490.17224778 88.95117066 512.56313642 88.97874451 534.95402527 C88.98001271 535.9835622 88.9812809 537.01309913 88.98258753 538.07383415 C89.06726878 606.84527839 89.14535325 675.61673044 89.22241211 744.38818359 C90.03395752 744.3975293 90.84550293 744.406875 91.68164062 744.41650391 C95.38333258 744.47041589 99.08378931 744.55402559 102.78491211 744.63818359 C104.70013672 744.65945313 104.70013672 744.65945313 106.65405273 744.68115234 C113.63415376 744.86245367 118.63123294 745.02181466 124.22241211 749.38818359 C127.56720772 753.70120951 129.3523205 757.12868882 129.3359375 762.58422852 C129.33586197 763.4248735 129.33578644 764.26551849 129.33570862 765.13163757 C129.33054733 766.03485245 129.32538605 766.93806732 129.32006836 767.86865234 C129.31865341 768.79664139 129.31723846 769.72463043 129.31578064 770.68074036 C129.31018148 773.64575417 129.29762915 776.61069258 129.28491211 779.57568359 C129.279897 781.58544813 129.27533411 783.59521385 129.27124023 785.60498047 C129.26021232 790.53274392 129.24294828 795.46045097 129.22241211 800.38818359 C130.35723022 800.37930115 131.49204834 800.3704187 132.66125488 800.36126709 C143.3720601 800.28007104 154.08280261 800.22016523 164.79384613 800.18093491 C170.30011351 800.16008792 175.80613181 800.13182278 181.31225586 800.08642578 C186.62907855 800.04286542 191.94566212 800.01902476 197.26264954 800.00867462 C199.28798688 800.00130157 201.3133116 799.98690371 203.33854675 799.96526337 C206.18228113 799.93609411 209.02503583 799.93223326 211.86889648 799.93408203 C212.70040222 799.91970093 213.53190796 799.90531982 214.38861084 799.89050293 C220.70367826 799.93473222 226.10637933 801.43531413 230.7871933 805.8710289 C235.05544881 810.78271933 235.39761021 814.88149135 235.46069336 821.12646484 C235.46876511 821.88485153 235.47683685 822.64323822 235.4851532 823.42460632 C235.49897393 825.02922289 235.50970507 826.63386862 235.51757812 828.23852539 C235.52909692 829.87468108 235.5495474 831.51079922 235.57910156 833.14672852 C235.62188714 835.51523279 235.63796155 837.88262155 235.64819336 840.25146484 C235.66570145 840.97666824 235.68320953 841.70187164 235.70124817 842.4490509 C235.67948906 847.58536238 234.42589372 850.42163539 231.22241211 854.38818359 C226.13062679 859.08829312 221.80389585 860.6375513 214.91674298 860.64118326 C213.63468184 860.64670274 212.3526207 860.65222223 211.03170922 860.65790898 C209.6082371 860.65393324 208.18476548 860.64977431 206.76129436 860.6454525 C205.24346607 860.64814515 203.72563913 860.65171257 202.20781472 860.65607697 C198.01674109 860.66556203 193.82575407 860.66252559 189.6346761 860.65752142 C185.08269216 860.6542632 180.53072708 860.66253031 175.9787491 860.66933978 C167.99405495 860.6796634 160.00938506 860.68247948 152.02468491 860.68042755 C140.15123327 860.67738369 128.27780857 860.68568785 116.40436216 860.6961768 C93.96696728 860.71554345 71.52958151 860.72114601 49.09217926 860.72229092 C31.76875525 860.72320911 14.44533484 860.72732111 -2.878088 860.73369217 C-7.86003595 860.73548719 -12.84198391 860.73726681 -17.82393187 860.73904192 C-19.68158656 860.73970507 -19.68158656 860.73970507 -21.57676962 860.74038161 C-56.42325131 860.75269421 -91.26973175 860.76058231 -126.11621571 860.75969505 C-127.43066379 860.7596639 -128.74511187 860.75963274 -130.09939172 860.75960064 C-136.09406985 860.75945108 -142.08874798 860.75927753 -148.08342612 860.75909287 C-150.75664989 860.75901062 -153.42987366 860.75893033 -156.10309744 860.75885024 C-157.44109467 860.75880945 -158.7790919 860.75876741 -160.11708913 860.75872412 C-202.42947344 860.75736352 -244.74182429 860.77199957 -287.05419922 860.79980469 C-333.81179156 860.83051414 -380.56936417 860.8477384 -427.32696742 860.84587824 C-432.30985844 860.84572898 -437.29274946 860.84563157 -442.27564049 860.84556961 C-443.50260623 860.8455463 -444.72957197 860.84552299 -445.99371849 860.84549898 C-465.76477747 860.84543735 -485.53580826 860.85822555 -505.30685885 860.87543414 C-525.16655778 860.89236274 -545.02621532 860.89438624 -564.88591746 860.8812155 C-576.69309424 860.87380787 -588.50014555 860.87753825 -600.30730911 860.89710018 C-608.18767628 860.90905615 -616.06795209 860.90655816 -623.94831498 860.89215918 C-628.44264071 860.88435899 -632.93672279 860.88295067 -637.4310318 860.89907388 C-641.51847285 860.91360954 -645.60546688 860.90978556 -649.69288788 860.89122615 C-651.16349004 860.88777915 -652.634127 860.89105467 -654.10469372 860.90182856 C-662.06366461 860.95624041 -668.03690852 860.84643455 -674.77758789 856.38818359 C-679.44046659 851.36662192 -679.95277816 847.97353298 -680.01586914 841.31005859 C-680.02394089 840.50586487 -680.03201263 839.70167114 -680.04032898 838.87310791 C-680.05417087 837.16835689 -680.06489256 835.46357815 -680.07275391 833.75878906 C-680.08992999 831.16205615 -680.13380873 828.56660884 -680.17797852 825.97021484 C-680.18810895 824.31267211 -680.19662395 822.65511856 -680.20336914 820.99755859 C-680.22087723 820.22547058 -680.23838531 819.45338257 -680.25642395 818.65789795 C-680.23561127 813.43717626 -679.181162 810.55518716 -675.77758789 806.38818359 C-670.31480767 801.34561724 -665.56797283 800.08814548 -658.25947094 800.12647057 C-657.50744055 800.1224745 -656.75541016 800.11847844 -655.98059097 800.11436129 C-653.45242302 800.10336397 -650.9244731 800.10659154 -648.39628601 800.10971069 C-646.56880645 800.10470914 -644.74132911 800.09883376 -642.9138549 800.09215796 C-637.88564473 800.07632693 -632.8574904 800.07292557 -627.82925832 800.07150936 C-622.40937475 800.06782073 -616.989522 800.05266795 -611.56965637 800.03889465 C-602.17722075 800.01660111 -592.78479607 800.00160042 -583.39233971 799.99152756 C-569.81236184 799.97695331 -556.23242206 799.95142002 -542.65246651 799.92319627 C-520.62086015 799.87770545 -498.5892483 799.84110011 -476.55761719 799.81005859 C-455.15363605 799.77988243 -433.74966828 799.74555939 -412.34570312 799.70556641 C-411.0267647 799.70310486 -409.70782627 799.70064331 -408.34892001 799.69810717 C-401.73231356 799.68573275 -395.11570726 799.67327618 -388.49910104 799.66077876 C-333.59194871 799.55717668 -278.68477962 799.46798474 -223.77758789 799.38818359 C-224.45015625 799.13568848 -225.12272461 798.88319336 -225.81567383 798.62304688 C-226.70544922 798.27999512 -227.59522461 797.93694336 -228.51196289 797.58349609 C-229.39078125 797.24850098 -230.26959961 796.91350586 -231.17504883 796.56835938 C-240.10871936 792.51719958 -245.43054648 784.36392725 -248.92211914 775.47412109 C-252.75610274 761.64376929 -249.31370435 742.08880585 -245.77758789 728.38818359 C-238.86337821 728.97771834 -232.096004 729.94334929 -225.27368164 731.20068359 C-224.31035416 731.37446533 -223.34702667 731.54824707 -222.35450745 731.72729492 C-219.30735599 732.27725618 -216.26114604 732.83220123 -213.21508789 733.38818359 C-210.16540711 733.94385703 -207.11552836 734.49830959 -204.06495667 735.04907227 C-202.17667838 735.39005133 -200.28889475 735.733786 -198.40171814 736.08081055 C-183.62972837 738.75043796 -171.42125175 738.3948082 -156.77758789 735.38818359 C-155.11106471 735.05413364 -153.44442667 734.7206552 -151.77758789 734.38818359 C-152.42494828 743.10830911 -153.63334299 751.69608708 -155.02758789 760.32568359 C-155.2196582 761.60636719 -155.41172852 762.88705078 -155.60961914 764.20654297 C-157.59201471 776.44378355 -160.54293241 787.59709638 -170.77758789 795.38818359 C-173.08758789 796.70818359 -175.39758789 798.02818359 -177.77758789 799.38818359 C-139.16758789 799.38818359 -100.55758789 799.38818359 -60.77758789 799.38818359 C-60.44758789 785.19818359 -60.11758789 771.00818359 -59.77758789 756.38818359 C-54.38019341 746.94274326 -54.38019341 746.94274326 -48.77758789 745.38818359 C-43.61841273 744.9253434 -38.50911724 745.01030003 -33.34008789 745.13818359 C-31.92670168 745.15827529 -30.51328796 745.17652136 -29.09985352 745.19287109 C-25.65852106 745.23666542 -22.21823214 745.30554456 -18.77758789 745.38818359 C-18.77850968 744.81980648 -18.77943148 744.25142937 -18.7803812 743.6658287 C-18.80246484 729.83643064 -18.8189495 716.00703567 -18.82940006 702.17762375 C-18.83462345 695.4898282 -18.84158682 688.80204575 -18.85302734 682.11425781 C-18.86387547 675.66280238 -18.86986884 669.21135918 -18.87246513 662.75989532 C-18.8743159 660.29587868 -18.87792986 657.83186271 -18.88331795 655.36785126 C-18.89055385 651.92246542 -18.89157774 648.47713047 -18.89111328 645.03173828 C-18.89470856 644.00818741 -18.89830383 642.98463654 -18.90200806 641.93006897 C-18.90063339 640.99059921 -18.89925873 640.05112946 -18.89784241 639.08319092 C-18.8987642 638.26832592 -18.89968599 637.45346092 -18.90063572 636.61390305 C-18.77701 634.37773061 -18.52255395 632.50144597 -17.77758789 630.38818359 C-14.11248573 628.31576551 -10.81608622 628.13822937 -6.66430664 628.11474609 C-5.49834961 628.09412109 -4.33239258 628.07349609 -3.13110352 628.05224609 C-0.69888161 628.02633004 1.73343403 628.00802589 4.16577148 627.99755859 C11.30835475 627.85588752 16.16036099 627.26760626 22.22241211 623.38818359 C25.85015679 619.52639087 26.33848674 615.93274777 26.55053711 610.71630859 C25.61511919 604.07929572 22.06711283 599.57398248 17.72241211 594.76318359 C16.63857807 593.53185331 15.55525573 592.30007245 14.47241211 591.06787109 C13.92713867 590.45266602 13.38186523 589.83746094 12.82006836 589.20361328 C10.41190533 586.4671982 8.06698934 583.67906142 5.72241211 580.88818359 C2.8488694 577.47761815 -0.03791316 574.07997976 -2.95727539 570.70849609 C-3.49030273 570.09167969 -4.02333008 569.47486328 -4.57250977 568.83935547 C-5.58949813 567.66397336 -6.60884595 566.49062647 -7.63110352 565.31982422 C-15.38505538 556.34998444 -18.85140887 549.29650115 -19.33618164 537.25537109 C-18.57080207 533.32677945 -16.77261073 531.96805475 -13.77758789 529.38818359 C-13.04282227 528.73978516 -12.30805664 528.09138672 -11.55102539 527.42333984 C-4.75139897 521.83081323 2.27771026 516.59914335 9.40844727 511.43725586 C19.75172522 504.51231927 19.75172522 504.51231927 26.22241211 494.38818359 C27.02688367 488.41498228 26.40855929 483.64379835 23.68334961 478.27490234 C19.85303155 473.32826164 15.09737365 470.60392115 9.43334961 468.16162109 C8.80764069 467.88726227 8.18193176 467.61290344 7.53726196 467.33023071 C5.56125171 466.46513067 3.57993099 465.61324901 1.59741211 464.76318359 C-0.39145097 463.90433442 -2.37891361 463.0425753 -4.36386108 462.17471313 C-6.15859399 461.39085576 -7.95748618 460.61654185 -9.7565918 459.84277344 C-10.75352051 459.36275879 -11.75044922 458.88274414 -12.77758789 458.38818359 C-13.55150879 458.01773926 -14.32542969 457.64729492 -15.12280273 457.265625 C-19.63529377 452.14596492 -17.95021288 440.42825462 -17.98291016 433.90625 C-17.99279842 432.6603755 -18.00268669 431.414501 -18.0128746 430.13087273 C-18.04007181 426.65846878 -18.06109932 423.18605151 -18.08086038 419.71359825 C-18.09881477 416.67350058 -18.12003428 413.6334285 -18.1411106 410.59335113 C-18.21208847 400.30886367 -18.26991299 390.02431722 -18.32528114 379.7397356 C-18.34003939 377.0221138 -18.35521445 374.30449464 -18.37052917 371.58687592 C-18.76915339 300.71388911 -18.93757425 229.83964019 -19.00059223 158.96561241 C-19.00126704 158.20961817 -19.00194185 157.45362393 -19.00263711 156.67472077 C-19.00331102 155.9188851 -19.00398493 155.16304943 -19.00467926 154.38430965 C-19.00569076 153.25086517 -19.00569076 153.25086517 -19.0067227 152.09452282 C-19.00807933 150.56940842 -19.00942408 149.04429402 -19.0107569 147.5191796 C-19.02092383 136.06007233 -19.03908442 124.60099643 -19.06130981 113.14190674 C-19.08678455 99.9694165 -19.1012425 86.79696443 -19.10142654 73.62444854 C-19.10178117 66.80177683 -19.10690929 59.97918937 -19.12518883 53.15653992 C-19.14153521 46.85068163 -19.14393528 40.54497788 -19.13516891 34.23910594 C-19.13442003 31.93969767 -19.13880409 29.6402812 -19.14867222 27.34089398 C-19.1612984 24.21878274 -19.15556665 21.09723467 -19.14508057 17.97512817 C-19.15716491 16.61364615 -19.15716491 16.61364615 -19.16949338 15.22465944 C-19.13202461 10.4792009 -18.94162189 7.19395984 -15.77758789 3.38818359 C-10.4783585 0.36920119 -6.01222544 -0.04631702 0 0 Z " fill="#000000" transform="translate(734.777587890625,81.61181640625)"/>
<path d="M0 0 C2.22760959 0.36807163 4.45531325 0.73557443 6.68310547 1.10253906 C12.34533109 2.03971189 18.00441302 2.99457295 23.66259766 3.95581055 C26.67143111 4.46551489 29.68117284 4.96934231 32.69140625 5.47070312 C71.15072787 11.89166701 109.32772773 19.93831076 147.25 29 C148.52456055 29.30164063 149.79912109 29.60328125 151.11230469 29.9140625 C169.79558097 34.49587673 184.01901665 43.35123082 194.921875 59.5390625 C207.64121617 80.59006513 214.30581308 105.12022814 219.3125 129 C219.5717627 130.23484131 219.83102539 131.46968262 220.09814453 132.74194336 C222.9406201 146.90255101 222.9406201 146.90255101 220.875 151.9375 C217.81300428 154.32968416 214.58788737 153.76165959 210.875 153.5 C207.28332628 153.01924181 203.73705418 152.35092496 200.1796875 151.6640625 C199.14006866 151.46944427 198.10044983 151.27482605 197.02932739 151.0743103 C193.60160494 150.4311443 190.17586216 149.77799583 186.75 149.125 C184.32566441 148.66850766 181.90118251 148.21279177 179.4765625 147.7578125 C174.43920592 146.81192899 169.40249569 145.86270601 164.36621094 144.91113281 C153.98416437 142.95209828 143.59465017 141.03367955 133.20504761 139.11520386 C127.58814746 138.0775194 121.97184794 137.03659342 116.35546875 135.99609375 C108.52986361 134.54674793 100.70411082 133.09820289 92.87817383 131.65065002 C88.43153887 130.82812125 83.98496681 130.00525266 79.53839111 129.18240356 C76.17719429 128.56059348 72.8158927 127.93935185 69.45458984 127.31811523 C57.8370182 125.16945294 46.22286614 123.0039237 34.61328125 120.8125 C8.71191464 115.92967522 -17.20905111 111.20268058 -43.1875 106.75 C-43.86155003 106.63438343 -44.53560005 106.51876686 -45.23007584 106.39964676 C-59.22799162 103.99944758 -73.23077209 101.63217373 -87.25 99.359375 C-88.24486923 99.19721497 -89.23973846 99.03505493 -90.26475525 98.86798096 C-94.78616979 98.13103881 -99.30841714 97.40183699 -103.83422852 96.69238281 C-105.39084397 96.4411032 -106.9474069 96.18949786 -108.50390625 95.9375 C-109.52260803 95.78350739 -109.52260803 95.78350739 -110.56188965 95.62640381 C-115.18106204 94.86521542 -118.98487742 93.62978242 -123.125 91.5 C-124.45579251 88.45818856 -124.69894919 87.62802309 -124.125 84.5 C-122.48730503 80.61362386 -120.30911068 77.10033402 -118.125 73.5 C-116.91473835 71.33440987 -115.70651489 69.1676798 -114.5 67 C-97.67996811 37.53087464 -77.56649608 8.48959888 -43.6875 -2.4375 C-29.17998341 -5.66664624 -14.38087827 -2.42480562 0 0 Z " fill="#FEFEFE" transform="translate(326.125,427.5)"/>
<path d="M0 0 C1.14275391 0.06574219 1.14275391 0.06574219 2.30859375 0.1328125 C5.58163912 1.21059174 6.58294148 3.08109304 8.5625 5.875 C9.65978594 8.19515113 10.64178609 10.45478727 11.56640625 12.83984375 C11.97933426 13.87238281 11.97933426 13.87238281 12.40060425 14.92578125 C12.99981904 16.42642496 13.59521516 17.92859786 14.18722534 19.43209839 C15.82814827 23.59733739 17.49907721 27.75058574 19.1640625 31.90625 C19.51724045 32.79021957 19.8704184 33.67418915 20.23429871 34.58494568 C24.02066022 44.05193517 27.90073261 53.47969106 31.79663086 62.90203857 C33.00055737 65.81384805 34.20244057 68.7264957 35.40429688 71.63916016 C39.3087019 81.08953419 43.24885008 90.52316127 47.2578125 99.9296875 C47.63009476 100.80518753 48.00237701 101.68068756 48.38594055 102.5827179 C50.13552877 106.69670467 51.89208605 110.80736552 53.66381836 114.91186523 C61.4545703 133.09383966 61.4545703 133.09383966 59.5 139.1875 C56.49071889 143.36166412 54.14046456 145.44464603 49.125 146.8125 C44.78377595 146.88866183 43.08851086 146.42573126 39.5625 143.875 C34.97325769 137.93851578 31.44628427 131.26530077 28 124.625 C27.49476807 123.65933105 26.98953613 122.69366211 26.46899414 121.69873047 C23.46485592 115.86161951 20.65696262 109.96190456 18 103.9609375 C17.70642105 103.29815796 17.4128421 102.63537842 17.11036682 101.95251465 C15.66648023 98.67953511 14.24204607 95.39934192 12.83959961 92.10839844 C12.32405518 90.92020508 11.80851074 89.73201172 11.27734375 88.5078125 C10.82480225 87.44449707 10.37226074 86.38118164 9.90600586 85.28564453 C8.74227706 82.56007592 8.74227706 82.56007592 5.5625 81.875 C4.84444701 86.83197522 4.13814984 91.79054125 3.4375 96.75 C3.3277887 97.52444458 3.21807739 98.29888916 3.1050415 99.09680176 C1.60241931 109.75559667 0.23756636 120.42429534 -1 131.1171875 C-1.13034637 132.23684906 -1.26069275 133.35651062 -1.39498901 134.51010132 C-2.04151128 140.07674978 -2.67580392 145.64443116 -3.29345703 151.21435547 C-3.5312113 153.28357053 -3.76931388 155.3527456 -4.0078125 157.421875 C-4.10771484 158.3601413 -4.20761719 159.29840759 -4.31054688 160.2651062 C-5.96526312 174.36242274 -5.96526312 174.36242274 -11.4375 178.875 C-14.6875 179.5625 -14.6875 179.5625 -18.4375 178.875 C-21.26035542 176.60343164 -23.28419665 173.77052414 -25.4375 170.875 C-26.67059065 169.23208047 -27.90718739 167.59202116 -29.14916992 165.95581055 C-29.98334491 164.85132303 -30.80839389 163.7398585 -31.62231445 162.62036133 C-36.54788802 156.01150456 -42.9009244 151.37362735 -49.6875 146.8125 C-51.08204799 145.86460796 -52.47657843 144.91669009 -53.87109375 143.96875 C-54.60440918 143.47246094 -55.33772461 142.97617187 -56.09326172 142.46484375 C-60.32285593 139.59636661 -64.53452774 136.70167023 -68.75 133.8125 C-70.35001895 132.71709514 -71.95026292 131.62201883 -73.55078125 130.52734375 C-74.56845581 129.83112915 -74.56845581 129.83112915 -75.60668945 129.12084961 C-79.56736722 126.32820095 -79.56736722 126.32820095 -84.4375 125.875 C-83.8885173 130.21108686 -82.84984736 133.49717494 -80.8203125 137.359375 C-80.29566406 138.37773437 -79.77101563 139.39609375 -79.23046875 140.4453125 C-78.12660313 142.54963712 -77.0224409 144.65380617 -75.91796875 146.7578125 C-67.96938144 162.18856635 -67.96938144 162.18856635 -68.9375 169.8125 C-70.70372833 173.4185495 -71.69706093 174.46194524 -75.4375 175.875 C-78.8125 176.5 -78.8125 176.5 -82.4375 175.875 C-88.51619226 171.37913256 -92.19961938 164.85052512 -95.9375 158.4375 C-97.16656385 156.3741625 -98.39707939 154.31168916 -99.62890625 152.25 C-100.25684082 151.19425781 -100.88477539 150.13851562 -101.53173828 149.05078125 C-104.57983372 143.97140315 -107.7249125 138.95404631 -110.875 133.9375 C-111.49479736 132.94862793 -112.11459473 131.95975586 -112.75317383 130.94091797 C-114.01276235 128.93137653 -115.27277303 126.92209964 -116.53320312 124.91308594 C-118.45781084 121.84259639 -120.37808959 118.76944342 -122.296875 115.6953125 C-122.93141602 114.67888672 -123.56595703 113.66246094 -124.21972656 112.61523438 C-125.47997065 110.59600166 -126.73974395 108.57647504 -127.99902344 106.55664062 C-130.9426041 101.84130178 -133.90162502 97.13765686 -136.90625 92.4609375 C-137.45063721 91.61055908 -137.99502441 90.76018066 -138.5559082 89.8840332 C-139.55950346 88.31922411 -140.56799548 86.75753792 -141.58276367 85.19995117 C-150.88273009 70.67924248 -150.88273009 70.67924248 -149.4375 62.875 C-147.88732496 59.89749398 -146.19731833 57.80177255 -143.4375 55.875 C-137.91950712 54.37101667 -133.75566573 55.92584031 -128.78466797 58.52124023 C-123.91194546 61.33164655 -119.3145367 64.55703872 -114.6875 67.75 C-113.57329829 68.51390981 -112.45887433 69.27749556 -111.34423828 70.04077148 C-102.18609948 76.32146681 -93.08783808 82.68755244 -84.00341797 89.07421875 C-75.50357316 95.03947615 -66.97314942 100.96113111 -58.4375 106.875 C-57.07455811 107.81931885 -57.07455811 107.81931885 -55.68408203 108.78271484 C-53.10442261 110.56718685 -50.52165122 112.34704069 -47.9375 114.125 C-47.17880615 114.649729 -46.4201123 115.17445801 -45.63842773 115.71508789 C-43.58490876 117.12345946 -41.51786489 118.50666476 -39.4375 119.875 C-38.49390625 120.50825195 -38.49390625 120.50825195 -37.53125 121.15429688 C-33.90720038 123.45370487 -33.90720038 123.45370487 -29.73242188 123.47363281 C-28.97509766 123.27608398 -28.21777344 123.07853516 -27.4375 122.875 C-25.38514433 107.77811313 -23.77461328 92.65250013 -22.28125 77.4921875 C-22.08945478 75.55591871 -21.89755946 73.61965983 -21.70556641 71.68341064 C-20.9110157 63.65863366 -20.11817215 55.63372892 -19.34423828 47.60693359 C-18.86468554 42.63749535 -18.37360671 37.66931202 -17.87495422 32.70175552 C-17.68886427 30.82594931 -17.50706602 28.94971192 -17.32975769 27.07305527 C-17.08295963 24.46529783 -16.82148537 21.85939559 -16.55664062 19.25341797 C-16.48798294 18.48982971 -16.41932526 17.72624146 -16.34858704 16.93951416 C-15.72187589 11.01390325 -14.36000938 6.65332118 -9.9375 2.5625 C-6.49134888 0.23634799 -4.06303425 -0.31517635 0 0 Z " fill="#020202" transform="translate(634.4375,243.125)"/>
<path d="M0 0 C0.59047119 0.2055249 1.18094238 0.4110498 1.78930664 0.62280273 C3.14191356 5.06181729 2.41677935 7.20591093 0.32446289 11.27905273 C-0.4991272 12.92006958 -0.4991272 12.92006958 -1.33935547 14.59423828 C-1.93627197 15.75866455 -2.53318848 16.92309082 -3.14819336 18.12280273 C-4.36823115 20.57153747 -5.57276313 23.02768572 -6.77319336 25.48608398 C-7.07245224 26.09797073 -7.37171112 26.70985748 -7.68003845 27.34028625 C-13.77863606 39.89380095 -18.23123985 52.82391284 -21.77319336 66.31030273 C-22.03737061 67.29023193 -22.30154785 68.27016113 -22.57373047 69.27978516 C-24.15305367 75.68972134 -24.31794904 81.11334691 -23.21069336 87.62280273 C-11.4773547 92.91968947 0.41220801 97.63711873 12.47680664 102.12280273 C13.35006592 102.44918732 14.2233252 102.7755719 15.12304688 103.11184692 C27.92333058 107.8949457 40.75302577 112.51701329 53.78930664 116.62280273 C54.54711914 118.86499023 54.54711914 118.86499023 54.78930664 121.62280273 C53.15649414 123.69311523 53.15649414 123.69311523 50.66430664 125.74780273 C49.27018555 126.91956055 49.27018555 126.91956055 47.84790039 128.11499023 C46.83856445 128.94256836 45.82922852 129.77014648 44.78930664 130.62280273 C43.29170219 131.92112122 41.79411953 133.21946554 40.29760742 134.51904297 C32.73810918 141.03402863 24.80525368 147.04920937 16.84643555 153.0637207 C13.70977005 155.44097514 10.59291532 157.8437033 7.47680664 160.24780273 C5.58241697 161.70801091 3.68681077 163.16664401 1.78930664 164.62280273 C0.68522461 165.5006543 0.68522461 165.5006543 -0.44116211 166.39624023 C-2.21069336 167.62280273 -2.21069336 167.62280273 -4.21069336 167.62280273 C-4.84813445 172.73237847 -4.84813445 172.73237847 -3.12084961 177.38891602 C-1.56157168 179.09657351 0.06420816 180.64540698 1.78930664 182.18530273 C2.3887207 182.75047607 2.98813477 183.31564941 3.60571289 183.89794922 C5.31336228 185.49702641 7.04389115 187.0651581 8.78930664 188.62280273 C9.87211914 189.59733398 9.87211914 189.59733398 10.97680664 190.59155273 C12.20510937 191.67161203 13.44107801 192.74300401 14.68383789 193.80639648 C23.76375292 201.63971836 32.30202677 210.03269626 40.78930664 218.49780273 C41.69769287 219.40159668 42.6060791 220.30539062 43.54199219 221.23657227 C56.63714232 234.36220175 56.63714232 234.36220175 56.78930664 238.62280273 C54.30478167 241.10732771 52.86672534 240.86332215 49.47538757 240.86564636 C48.75011368 240.85382828 48.02483978 240.84201019 47.27758789 240.82983398 C46.52085281 240.82297073 45.76411774 240.81610748 44.98445129 240.80903625 C36.61954836 240.68417248 28.3065116 240.04934124 19.97680664 239.31030273 C18.80532074 239.20851715 18.80532074 239.20851715 17.61016846 239.10467529 C-22.20860484 235.62489125 -22.20860484 235.62489125 -30.21069336 227.62280273 C-30.56022207 224.89647882 -30.72118363 223.31033172 -29.05053711 221.06030273 C-26.62191747 219.16278251 -24.46146428 218.7267176 -21.46069336 218.06030273 C-20.39850586 217.81538086 -19.33631836 217.57045898 -18.24194336 217.31811523 C-17.24163086 217.08866211 -16.24131836 216.85920898 -15.21069336 216.62280273 C-12.86563833 215.98963788 -10.540285 215.31109118 -8.21069336 214.62280273 C-8.10100618 212.33623804 -8.10100618 212.33623804 -9.21069336 209.62280273 C-11.63582589 207.24378133 -14.38466434 205.33912063 -17.14819336 203.37280273 C-18.70521683 202.22492293 -20.25991302 201.07387956 -21.81225586 199.91967773 C-22.56796875 199.35958008 -23.32368164 198.79948242 -24.10229492 198.22241211 C-30.46600488 193.39436352 -37.57983665 187.88451615 -41.21069336 180.62280273 C-41.61943648 176.98893849 -41.64914754 175.24008359 -39.50170898 172.21679688 C-38.71473633 171.45488037 -37.92776367 170.69296387 -37.11694336 169.90795898 C-36.25069336 169.0565332 -35.38444336 168.20510742 -34.49194336 167.32788086 C-33.57413086 166.45583008 -32.65631836 165.5837793 -31.71069336 164.68530273 C-30.82381836 163.81711914 -29.93694336 162.94893555 -29.02319336 162.05444336 C-24.42660697 157.58291116 -19.72146823 153.28023119 -14.86791992 149.09082031 C-12.87305807 147.32371596 -11.07508681 145.45349848 -9.33569336 143.43530273 C-8.78139648 142.80237305 -8.22709961 142.16944336 -7.65600586 141.51733398 C-5.35505373 138.50122106 -4.29745111 136.12406972 -3.64819336 132.37280273 C-4.48078617 126.822184 -7.03252445 124.21224736 -11.21069336 120.62280273 C-20.18915101 115.14951405 -29.99646388 112.32121824 -40.02709961 109.44018555 C-41.92139474 108.89198802 -43.81218862 108.33173773 -45.70288086 107.77124023 C-46.81002441 107.4533252 -47.91716797 107.13541016 -49.05786133 106.80786133 C-52.59639242 105.47782958 -55.15315882 103.82254657 -58.21069336 101.62280273 C-57.4870981 97.47294459 -56.28619122 93.59525889 -54.96069336 89.59936523 C-54.5126135 88.23483548 -54.06470208 86.8702504 -53.61694336 85.50561523 C-52.91478853 83.37659548 -52.21082879 81.24821015 -51.50366211 79.12084961 C-50.81752196 77.05284619 -50.1387041 74.98254583 -49.46069336 72.91186523 C-49.05334961 71.68161621 -48.64600586 70.45136719 -48.22631836 69.18383789 C-47.20821653 65.61411835 -46.64465326 62.29907986 -46.21069336 58.62280273 C-53.22262364 59.24644078 -59.19369191 61.18543638 -65.76342773 63.62670898 C-72.85597072 66.14128317 -72.85597072 66.14128317 -77.21069336 64.62280273 C-77.98022461 62.42358398 -77.98022461 62.42358398 -78.21069336 59.62280273 C-76.47241211 57.22827148 -76.47241211 57.22827148 -73.89819336 54.81030273 C-72.49633789 53.49352539 -72.49633789 53.49352539 -71.06616211 52.15014648 C-66.90205555 48.46454191 -62.61905974 45.01119415 -58.21069336 41.62280273 C-56.91171638 40.608201 -55.61360964 39.59248456 -54.31616211 38.57592773 C-49.62784341 34.9073621 -44.92236077 31.26131775 -40.21069336 27.62280273 C-39.35411133 26.96119141 -38.4975293 26.29958008 -37.61499023 25.61791992 C-31.510695 20.91205502 -25.37850195 16.24512799 -19.21069336 11.62280273 C-17.96352539 10.68718506 -17.96352539 10.68718506 -16.69116211 9.73266602 C-14.35498662 7.99217802 -12.00522254 6.27240435 -9.64819336 4.56030273 C-8.95201904 4.04129395 -8.25584473 3.52228516 -7.53857422 2.98754883 C-2.71503796 -0.46325054 -2.71503796 -0.46325054 0 0 Z " fill="#020202" transform="translate(681.210693359375,451.377197265625)"/>
<path d="M0 0 C0.63164063 0.43570313 1.26328125 0.87140625 1.9140625 1.3203125 C11.8031823 7.9035594 22.00643255 12.39112844 33.45703125 15.37890625 C34.26908524 15.59141525 35.08113922 15.80392426 35.9178009 16.02287292 C46.57883783 18.74194617 57.38335635 20.75647172 68.1875 22.8125 C70.31717048 23.22272009 72.44672853 23.63352432 74.57617188 24.04492188 C79.71618216 25.03665839 84.85762979 26.02057715 90 27 C89.12425741 31.4208901 88.22067975 35.8356691 87.3125 40.25 C87.06822266 41.48492188 86.82394531 42.71984375 86.57226562 43.9921875 C83.47428446 58.89386907 78.84926498 70.8157281 66.07421875 79.74609375 C52.79430077 87.77406676 36.36310207 83.96902868 22.15087891 80.54248047 C11.46546395 77.8474757 3.33338983 72.31863379 -2.9375 63.0625 C-10.78222854 49.01431591 -7.59527146 35.47547109 -4.5625 20.5625 C-4.23289835 18.89925194 -3.90411574 17.23584135 -3.57617188 15.57226562 C-1.19287742 3.57863227 -1.19287742 3.57863227 0 0 Z " fill="#010101" transform="translate(87,726)"/>
<path d="M0 0 C1.0979187 0.34090668 2.1958374 0.68181335 3.32702637 1.03305054 C5.63847384 1.75475661 7.94790204 2.48295853 10.25537109 3.21728516 C13.76448577 4.33061873 17.28175262 5.4145642 20.80078125 6.49609375 C23.05523989 7.20397229 25.30916517 7.91355221 27.5625 8.625 C28.60337769 8.94401276 29.64425537 9.26302551 30.7166748 9.59170532 C38.81020976 12.20330017 47.14890701 15.69319348 51.71875 23.2734375 C52.17121094 23.99660156 52.62367188 24.71976563 53.08984375 25.46484375 C57.14632305 33.11230473 57.57126356 41.09644484 55.21875 49.4609375 C52.1414502 57.39864541 45.81746898 63.03083057 38.28125 66.7109375 C31.4199218 68.88648059 24.51689398 67.53994957 17.70703125 65.8828125 C16.90194626 65.69253479 16.09686127 65.50225708 15.26737976 65.30621338 C13.56968565 64.90306967 11.87290122 64.4960778 10.17700195 64.08544922 C7.6209283 63.46750797 5.06183445 62.86366677 2.50195312 62.26171875 C-27.66462968 55.09583642 -27.66462968 55.09583642 -35.7109375 43.6171875 C-40.29171553 34.95277015 -39.99201728 23.71938255 -37.99609375 14.30078125 C-35.54462259 7.08531757 -32.44657827 1.84305467 -25.46875 -1.6640625 C-17.04240539 -5.56045493 -8.31059098 -2.64403773 0 0 Z " fill="#FDFDFD" transform="translate(172.71875,582.2890625)"/>
<path d="M0 0 C0.94346283 -0.00095673 1.88692566 -0.00191345 2.85897827 -0.00289917 C4.85439114 -0.00357866 6.84980624 -0.00174049 8.84521484 0.00244141 C11.86691395 0.00775705 14.88846197 0.00250714 17.91015625 -0.00390625 C19.85677116 -0.00324473 21.80338597 -0.00196204 23.75 0 C25.08498032 -0.00303635 25.08498032 -0.00303635 26.44692993 -0.00613403 C47.62078631 0.07112029 47.62078631 0.07112029 54.9921875 6.671875 C59.95448908 11.9990517 62.36907277 17.60768928 62.6484375 24.8828125 C62.28390593 34.78592006 59.62661159 44.38772826 53.2734375 52.1328125 C44.79172559 59.57941567 36.19302954 60.57590294 25.2734375 60.1328125 C21.20048546 59.69036433 17.1828468 59.02822093 13.1484375 58.3203125 C12.07037842 58.13799072 10.99231934 57.95566895 9.8815918 57.76782227 C7.70712028 57.39995387 5.53319516 57.02883933 3.35986328 56.65429688 C0.53109188 56.17634594 -2.29985947 55.73157031 -5.13671875 55.3046875 C-5.95060059 55.17940674 -6.76448242 55.05412598 -7.60302734 54.92504883 C-9.0906031 54.69671082 -10.57916838 54.47468375 -12.06884766 54.26049805 C-20.37518817 52.94393401 -25.00536571 49.40529771 -30.4140625 43.1953125 C-34.36927812 36.97997367 -34.44000802 30.28532957 -33.7265625 23.1328125 C-31.83115654 15.23339605 -27.53445313 8.28627689 -20.671875 3.78515625 C-13.88280841 0.21128912 -7.5411699 -0.0169211 0 0 Z " fill="#FDFDFD" transform="translate(519.7265625,650.8671875)"/>
</svg>
